<svg width="20" height="21" viewBox="0 0 20 21" fill="none" xmlns="http://www.w3.org/2000/svg">
<path d="M4.96768 2.08162C4.96768 1.52954 5.17431 1.00007 5.54213 0.609691C5.90994 0.219312 6.4088 0 6.92897 0H12.8128C13.333 0 13.8319 0.219312 14.1997 0.609691C14.5675 1.00007 14.7741 1.52954 14.7741 2.08162V4.16323H18.6967C18.9568 4.16323 19.2062 4.27289 19.3901 4.46808C19.574 4.66327 19.6774 4.928 19.6774 5.20404C19.6774 5.48008 19.574 5.74481 19.3901 5.94C19.2062 6.13519 18.9568 6.24485 18.6967 6.24485H17.6484L16.7982 18.8823C16.763 19.4075 16.5415 19.899 16.1785 20.2578C15.8155 20.6167 15.3379 20.8162 14.8418 20.8162H4.89903C4.40296 20.8162 3.92532 20.6167 3.5623 20.2578C3.19928 19.899 2.97787 19.4075 2.94265 18.8823L2.09439 6.24485H1.0451C0.785015 6.24485 0.535584 6.13519 0.351677 5.94C0.167771 5.74481 0.0644531 5.48008 0.0644531 5.20404C0.0644531 4.928 0.167771 4.66327 0.351677 4.46808C0.535584 4.27289 0.785015 4.16323 1.0451 4.16323H4.96768V2.08162ZM6.92897 4.16323H12.8128V2.08162H6.92897V4.16323ZM4.0596 6.24485L4.90001 18.7345H14.8428L15.6832 6.24485H4.0596ZM7.90961 8.32646C8.1697 8.32646 8.41913 8.43612 8.60303 8.63131C8.78694 8.8265 8.89026 9.09123 8.89026 9.36727V15.6121C8.89026 15.8882 8.78694 16.1529 8.60303 16.3481C8.41913 16.5433 8.1697 16.6529 7.90961 16.6529C7.64953 16.6529 7.4001 16.5433 7.21619 16.3481C7.03229 16.1529 6.92897 15.8882 6.92897 15.6121V9.36727C6.92897 9.09123 7.03229 8.8265 7.21619 8.63131C7.4001 8.43612 7.64953 8.32646 7.90961 8.32646ZM11.8322 8.32646C12.0923 8.32646 12.3417 8.43612 12.5256 8.63131C12.7095 8.8265 12.8128 9.09123 12.8128 9.36727V15.6121C12.8128 15.8882 12.7095 16.1529 12.5256 16.3481C12.3417 16.5433 12.0923 16.6529 11.8322 16.6529C11.5721 16.6529 11.3227 16.5433 11.1388 16.3481C10.9549 16.1529 10.8516 15.8882 10.8516 15.6121V9.36727C10.8516 9.09123 10.9549 8.8265 11.1388 8.63131C11.3227 8.43612 11.5721 8.32646 11.8322 8.32646Z" fill="white"/>
</svg>
